# xmcd
#
# Track frame offsets:
#   150
#   12592
#   28811
#   41682
#   52774
#   64293
#   75923
#   85265
#   97044
#   110016
#   121666
#   133523
#   145132
#   157434
#   169397
#   181493
#   193884
#   212575
#   227094
#   241515
#   254558
#   267430
#   279502
#   291827
#   304756
#
# Disc length: 4214 seconds
#
# Revision: 2
# Processed by: cddbd v1.5.1PL0 Copyright (c) Steve Scherf et al.
# Submitted via: Media_Universe 3.0
#
DISCID=70107419
DTITLE=Bob Wills 1936-1950 - Les Triomphes De La Country Music Vol.8
DYEAR=2002
DGENRE=Country
TTITLE0=Steel Guitar Rag
TTITLE1=Basin Street Blues
TTITLE2=Fan It
TTITLE3=Oozlin' Daddy Blues
TTITLE4=San Antonio Rose
TTITLE5=Whoa Baby
TTITLE6=My Window Faces The South
TTITLE7=That's What I Like About The South
TTITLE8=Corrine, Corrina
TTITLE9=New San Antonio Rose
TTITLE10=Twin Guitar Special
TTITLE11=Miss Molly
TTITLE12=You're From Texas
TTITLE13=Roly Poly
TTITLE14=Cotton-Eyed Joe
TTITLE15=Brain Cloudy Blues
TTITLE16=A Little Bit Of Boogie
TTITLE17=Hawaiian War Chant
TTITLE18=I'm A Ding Dong Daddy
TTITLE19=Milk Cow Blues
TTITLE20=Blues For Dixie
TTITLE21=Ida Red Likes To Boogie
TTITLE22=Boot Heel Drag
TTITLE23=Rock-A-Bye Baby Blues
TTITLE24=The End Of The Line
EXTD=YEAR: 2002
EXTT0=
EXTT1=
EXTT2=
EXTT3=
EXTT4=
EXTT5=
EXTT6=
EXTT7=
EXTT8=
EXTT9=
EXTT10=
EXTT11=
EXTT12=
EXTT13=
EXTT14=
EXTT15=
EXTT16=
EXTT17=
EXTT18=
EXTT19=
EXTT20=
EXTT21=
EXTT22=
EXTT23=
EXTT24=
PLAYORDER=
